<svg width="111" height="101" viewBox="0 0 111 101" fill="none" xmlns="http://www.w3.org/2000/svg">
  <path d="M82.2259 32.1723C82.2259 32.1723 104.113 43.2912 109.302 62.1204C114.491 80.9489 101.752 100.813 101.752 100.813C101.752 100.813 80.5996 90.1488 75.4101 71.32C70.2212 52.4915 82.2259 32.1723 82.2259 32.1723Z" fill="#EE1E5F"/>
  <path d="M0.0255011 69.5088C0.0255011 69.5088 2.25411 45.0603 17.826 33.2713C33.397 21.4823 56.5653 25.9652 56.5653 25.9652C56.5653 25.9652 54.487 49.5621 38.9159 61.3518C23.3448 73.1408 0.0255011 69.5088 0.0255011 69.5088Z" fill="#47B6D4"/>
  <path d="M91 14.5C91 22.5081 84.5081 29 76.5 29C68.4919 29 62 22.5081 62 14.5C62 6.49192 68.4919 0 76.5 0C84.5081 0 91 6.49192 91 14.5Z" fill="#FAB512"/>
  <path d="M62 83.5C62 89.299 57.299 94 51.5 94C45.701 94 41 89.299 41 83.5C41 77.701 45.701 73 51.5 73C57.299 73 62 77.701 62 83.5Z" fill="#FAB512"/>
</svg>
